<svg id="visual" viewBox="0 0 1920 110" width="1920" height="110" xmlns="http://www.w3.org/2000/svg" xmlns:xlink="http://www.w3.org/1999/xlink" version="1.1"><rect x="0" y="0" width="1920" height="110" fill="#f7f0f0"></rect><path d="M0 41L53.3 47.5C106.7 54 213.3 67 320 67.5C426.7 68 533.3 56 640 48.7C746.7 41.3 853.3 38.7 960 39.5C1066.7 40.3 1173.3 44.7 1280 47.3C1386.7 50 1493.3 51 1600 56.2C1706.7 61.3 1813.3 70.7 1866.7 75.3L1920 80L1920 111L1866.7 111C1813.3 111 1706.7 111 1600 111C1493.3 111 1386.7 111 1280 111C1173.3 111 1066.7 111 960 111C853.3 111 746.7 111 640 111C533.3 111 426.7 111 320 111C213.3 111 106.7 111 53.3 111L0 111Z" fill="#8af3ff" stroke-linecap="round" stroke-linejoin="miter"></path></svg>