<svg id="visual" viewBox="0 0 1900 120" width="1900" height="120" xmlns="http://www.w3.org/2000/svg" xmlns:xlink="http://www.w3.org/1999/xlink" version="1.1"><rect x="0" y="0" width="1900" height="120" fill="#0A0082"></rect><path d="M0 62L52.8 67.7C105.7 73.3 211.3 84.7 316.8 80.2C422.3 75.7 527.7 55.3 633.2 56C738.7 56.7 844.3 78.3 950 84.2C1055.7 90 1161.3 80 1266.8 77C1372.3 74 1477.7 78 1583.2 67.2C1688.7 56.3 1794.3 30.7 1847.2 17.8L1900 5L1900 121L1847.2 121C1794.3 121 1688.7 121 1583.2 121C1477.7 121 1372.3 121 1266.8 121C1161.3 121 1055.7 121 950 121C844.3 121 738.7 121 633.2 121C527.7 121 422.3 121 316.8 121C211.3 121 105.7 121 52.8 121L0 121Z" fill="#00ffc3" stroke-linecap="round" stroke-linejoin="miter"></path></svg>