<svg id="visual" viewBox="0 0 1920 200" width="1920" height="200" xmlns="http://www.w3.org/2000/svg" xmlns:xlink="http://www.w3.org/1999/xlink" version="1.1"><rect x="0" y="0" width="1920" height="200" fill="#fff"></rect><path d="M0 104L64 94.7C128 85.3 256 66.7 384 78.3C512 90 640 132 768 143C896 154 1024 134 1152 116.2C1280 98.3 1408 82.7 1536 88.2C1664 93.7 1792 120.3 1856 133.7L1920 147L1920 201L1856 201C1792 201 1664 201 1536 201C1408 201 1280 201 1152 201C1024 201 896 201 768 201C640 201 512 201 384 201C256 201 128 201 64 201L0 201Z" fill="#00ffc3" stroke-linecap="round" stroke-linejoin="miter"></path></svg>