<?xml version="1.0" encoding="UTF-8" standalone="no"?>
<!-- Created with Inkscape (http://www.inkscape.org/) -->

<svg
   width="361.39999mm"
   height="98.800003mm"
   viewBox="0 0 361.4 98.800003"
   version="1.1"
   id="svg5911"
   xml:space="preserve"
   inkscape:version="1.2.1 (9c6d41e410, 2022-07-14)"
   sodipodi:docname="Captair_wide_V2.svg"
   inkscape:export-filename="Captair_wide_V3.png"
   inkscape:export-xdpi="197.43025"
   inkscape:export-ydpi="197.43025"
   xmlns:inkscape="http://www.inkscape.org/namespaces/inkscape"
   xmlns:sodipodi="http://sodipodi.sourceforge.net/DTD/sodipodi-0.dtd"
   xmlns="http://www.w3.org/2000/svg"
   xmlns:svg="http://www.w3.org/2000/svg"><sodipodi:namedview
     id="namedview5913"
     pagecolor="#ffffff"
     bordercolor="#000000"
     borderopacity="0.25"
     inkscape:showpageshadow="2"
     inkscape:pageopacity="0.0"
     inkscape:pagecheckerboard="0"
     inkscape:deskcolor="#d1d1d1"
     inkscape:document-units="mm"
     showgrid="false"
     inkscape:zoom="13.455443"
     inkscape:cx="1393.7854"
     inkscape:cy="213.07362"
     inkscape:window-width="3000"
     inkscape:window-height="1876"
     inkscape:window-x="-12"
     inkscape:window-y="-12"
     inkscape:window-maximized="1"
     inkscape:current-layer="layer1" /><defs
     id="defs5908"><inkscape:path-effect
       effect="powermask"
       id="path-effect15973"
       is_visible="true"
       lpeversion="1"
       uri="#mask-powermask-path-effect15973"
       invert="false"
       hide_mask="false"
       background="true"
       background_color="#ffffffff" /><inkscape:path-effect
       effect="powerclip"
       id="path-effect14507"
       is_visible="true"
       lpeversion="1"
       inverse="true"
       flatten="false"
       hide_clip="false"
       message="M 719.14355,954.79412 A 419.52112,419.52112 0 0 1 184.10743,854.79245 419.52112,419.52112 0 0 1 198.13476,310.67186 419.52112,419.52112 0 0 1 737.6128,238.37095 L 510.28293,590.96008 Z" /><inkscape:path-effect
       effect="powerclip"
       id="path-effect14496"
       is_visible="true"
       lpeversion="1"
       inverse="true"
       flatten="false"
       hide_clip="false"
       message="M 719.14355,954.79412 A 419.52112,419.52112 0 0 1 184.10743,854.79245 419.52112,419.52112 0 0 1 198.13476,310.67186 419.52112,419.52112 0 0 1 737.6128,238.37095 L 510.28293,590.96008 Z" /><inkscape:path-effect
       effect="powerclip"
       id="path-effect14480"
       is_visible="true"
       lpeversion="1"
       inverse="true"
       flatten="false"
       hide_clip="false"
       message="M 719.14355,954.79412 A 419.52112,419.52112 0 0 1 184.10743,854.79245 419.52112,419.52112 0 0 1 198.13476,310.67186 419.52112,419.52112 0 0 1 737.6128,238.37095 L 510.28293,590.96008 Z" /><rect
       x="484.31671"
       y="377.53162"
       width="718.06677"
       height="229.54594"
       id="rect6021" /><clipPath
       clipPathUnits="userSpaceOnUse"
       id="clipPath14476"><circle
         style="display:none;fill:#ffffff;fill-opacity:1;fill-rule:evenodd;stroke-width:1.20408"
         id="circle14478"
         cx="512.80408"
         cy="586.422"
         r="327.24667" /><path
         id="lpe_path-effect14480"
         style="fill:#ffffff;fill-opacity:1;fill-rule:evenodd;stroke-width:1.20408"
         class="powerclip"
         d="M 85.76181,166.43896 H 934.80405 V 1015.4812 H 85.76181 Z M 840.05075,586.422 A 327.24667,327.24667 0 0 0 512.80408,259.17532 327.24667,327.24667 0 0 0 185.5574,586.422 327.24667,327.24667 0 0 0 512.80408,913.66867 327.24667,327.24667 0 0 0 840.05075,586.422 Z" /></clipPath><clipPath
       clipPathUnits="userSpaceOnUse"
       id="clipath_lpe_path-effect14496"><circle
         style="display:none;fill:#ffffff;fill-opacity:1;fill-rule:evenodd;stroke-width:1.20408"
         id="circle14498"
         cx="512.80408"
         cy="586.422"
         r="327.24667" /><path
         id="lpe_path-effect14496"
         style="fill:#ffffff;fill-opacity:1;fill-rule:evenodd;stroke-width:1.20408"
         class="powerclip"
         d="M 85.76181,166.43896 H 934.80405 V 1015.4812 H 85.76181 Z M 840.05075,586.422 A 327.24667,327.24667 0 0 0 512.80408,259.17532 327.24667,327.24667 0 0 0 185.5574,586.422 327.24667,327.24667 0 0 0 512.80408,913.66867 327.24667,327.24667 0 0 0 840.05075,586.422 Z" /></clipPath><clipPath
       clipPathUnits="userSpaceOnUse"
       id="clipath_lpe_path-effect14507"><circle
         style="display:none;fill:#ffffff;fill-opacity:1;fill-rule:evenodd;stroke-width:1.20408"
         id="circle14509"
         cx="512.80408"
         cy="586.422"
         r="327.24667"
         d="M 840.05075,586.422 A 327.24667,327.24667 0 0 1 512.80408,913.66867 327.24667,327.24667 0 0 1 185.5574,586.422 327.24667,327.24667 0 0 1 512.80408,259.17532 327.24667,327.24667 0 0 1 840.05075,586.422 Z" /><path
         id="lpe_path-effect14507"
         style="fill:#ffffff;fill-opacity:1;fill-rule:evenodd;stroke-width:1.20408"
         class="powerclip"
         d="M 85.76181,166.43896 H 934.80405 V 1015.4812 H 85.76181 Z M 840.05075,586.422 A 327.24667,327.24667 0 0 0 512.80408,259.17532 327.24667,327.24667 0 0 0 185.5574,586.422 327.24667,327.24667 0 0 0 512.80408,913.66867 327.24667,327.24667 0 0 0 840.05075,586.422 Z" /></clipPath><clipPath
       clipPathUnits="userSpaceOnUse"
       id="clipath_lpe_path-effect14496-4"><circle
         style="display:none;fill:#ffffff;fill-opacity:1;fill-rule:evenodd;stroke-width:1.20408"
         id="circle14534"
         cx="512.80408"
         cy="586.422"
         r="327.24667" /><path
         id="lpe_path-effect14496-3"
         style="fill:#ffffff;fill-opacity:1;fill-rule:evenodd;stroke-width:1.20408"
         class="powerclip"
         d="M 85.76181,166.43896 H 717.30825 V 1015.4812 H 85.76181 Z M 840.05075,586.422 A 327.24667,327.24667 0 0 0 512.80408,259.17532 327.24667,327.24667 0 0 0 185.5574,586.422 327.24667,327.24667 0 0 0 512.80408,913.66867 327.24667,327.24667 0 0 0 840.05075,586.422 Z" /></clipPath><inkscape:path-effect
       effect="powerclip"
       id="path-effect14480-9"
       is_visible="true"
       lpeversion="1"
       inverse="true"
       flatten="false"
       hide_clip="false"
       message="" /><inkscape:path-effect
       effect="powerclip"
       id="path-effect14496-8"
       is_visible="true"
       lpeversion="1"
       inverse="true"
       flatten="false"
       hide_clip="false"
       message="" /><inkscape:path-effect
       effect="powerclip"
       id="path-effect14507-5"
       is_visible="true"
       lpeversion="1"
       inverse="true"
       flatten="false"
       hide_clip="false"
       message="M 719.14355,954.79412 A 419.52112,419.52112 0 0 1 184.10743,854.79245 419.52112,419.52112 0 0 1 198.13476,310.67186 419.52112,419.52112 0 0 1 737.6128,238.37095 L 510.28293,590.96008 Z" /><inkscape:path-effect
       effect="powermask"
       id="path-effect15239"
       is_visible="true"
       lpeversion="1"
       uri="#mask-powermask-path-effect15239"
       invert="false"
       hide_mask="false"
       background="true"
       background_color="#ffffffff" /><clipPath
       clipPathUnits="userSpaceOnUse"
       id="clipath_lpe_path-effect14480"><circle
         style="display:none;fill:#ffffff;fill-opacity:1;fill-rule:evenodd;stroke-width:1.20408"
         id="circle15468"
         cx="512.80408"
         cy="586.422"
         r="327.24667" /><path
         id="lpe_path-effect14480-5"
         style="fill:#ffffff;fill-opacity:1;fill-rule:evenodd;stroke-width:1.20408"
         class="powerclip"
         d="M 85.76181,166.43896 H 717.30825 V 1015.4812 H 85.76181 Z M 840.05075,586.422 A 327.24667,327.24667 0 0 0 512.80408,259.17532 327.24667,327.24667 0 0 0 185.5574,586.422 327.24667,327.24667 0 0 0 512.80408,913.66867 327.24667,327.24667 0 0 0 840.05075,586.422 Z" /></clipPath><clipPath
       clipPathUnits="userSpaceOnUse"
       id="clipath_lpe_path-effect14507-7"><circle
         style="display:none;fill:#ffffff;fill-opacity:1;fill-rule:evenodd;stroke-width:1.20408"
         id="circle15473"
         cx="512.80408"
         cy="586.422"
         r="327.24667" /><path
         id="lpe_path-effect14507-6"
         style="fill:#ffffff;fill-opacity:1;fill-rule:evenodd;stroke-width:1.20408"
         class="powerclip"
         d="M 85.76181,166.43896 H 717.30825 V 1015.4812 H 85.76181 Z M 840.05075,586.422 A 327.24667,327.24667 0 0 0 512.80408,259.17532 327.24667,327.24667 0 0 0 185.5574,586.422 327.24667,327.24667 0 0 0 512.80408,913.66867 327.24667,327.24667 0 0 0 840.05075,586.422 Z" /></clipPath><clipPath
       clipPathUnits="userSpaceOnUse"
       id="clipath_lpe_path-effect14480-9"><circle
         style="display:none;fill:#ffffff;fill-opacity:1;fill-rule:evenodd;stroke-width:1.20408"
         id="circle15918"
         cx="512.80408"
         cy="586.422"
         r="327.24667" /><path
         id="lpe_path-effect14480-9"
         style="fill:#ffffff;fill-opacity:1;fill-rule:evenodd;stroke-width:1.20408"
         class="powerclip"
         d="M 85.76181,166.43896 H 742.6128 V 1015.4812 H 85.76181 Z M 840.05075,586.422 A 327.24667,327.24667 0 0 0 512.80408,259.17532 327.24667,327.24667 0 0 0 185.5574,586.422 327.24667,327.24667 0 0 0 512.80408,913.66867 327.24667,327.24667 0 0 0 840.05075,586.422 Z" /></clipPath><clipPath
       clipPathUnits="userSpaceOnUse"
       id="clipath_lpe_path-effect14496-8"><circle
         style="display:none;fill:#ffffff;fill-opacity:1;fill-rule:evenodd;stroke-width:1.20408"
         id="circle15923"
         cx="512.80408"
         cy="586.422"
         r="327.24667" /><path
         id="lpe_path-effect14496-8"
         style="fill:#ffffff;fill-opacity:1;fill-rule:evenodd;stroke-width:1.20408"
         class="powerclip"
         d="M 85.76181,166.43896 H 742.6128 V 1015.4812 H 85.76181 Z M 840.05075,586.422 A 327.24667,327.24667 0 0 0 512.80408,259.17532 327.24667,327.24667 0 0 0 185.5574,586.422 327.24667,327.24667 0 0 0 512.80408,913.66867 327.24667,327.24667 0 0 0 840.05075,586.422 Z" /></clipPath><clipPath
       clipPathUnits="userSpaceOnUse"
       id="clipath_lpe_path-effect14507-5"><circle
         style="display:none;fill:#ffffff;fill-opacity:1;fill-rule:evenodd;stroke-width:1.20408"
         id="circle15928"
         cx="512.80408"
         cy="586.422"
         r="327.24667"
         d="M 840.05075,586.422 A 327.24667,327.24667 0 0 1 512.80408,913.66867 327.24667,327.24667 0 0 1 185.5574,586.422 327.24667,327.24667 0 0 1 512.80408,259.17532 327.24667,327.24667 0 0 1 840.05075,586.422 Z" /><path
         id="lpe_path-effect14507-5"
         style="fill:#ffffff;fill-opacity:1;fill-rule:evenodd;stroke-width:1.20408"
         class="powerclip"
         d="M 85.76181,166.43896 H 742.6128 V 1015.4812 H 85.76181 Z M 840.05075,586.422 A 327.24667,327.24667 0 0 0 512.80408,259.17532 327.24667,327.24667 0 0 0 185.5574,586.422 327.24667,327.24667 0 0 0 512.80408,913.66867 327.24667,327.24667 0 0 0 840.05075,586.422 Z" /></clipPath><mask
       maskUnits="userSpaceOnUse"
       id="mask-powermask-path-effect15973"><path
         id="mask-powermask-path-effect15973_box"
         style="fill:#ffffff;fill-opacity:1"
         d="M 89.76181,170.43896 H 738.6128 V 1011.4812 H 89.76181 Z" /><ellipse
         style="fill:#1400f2;fill-opacity:1;fill-rule:evenodd;stroke-width:1.43322"
         id="ellipse15971"
         cx="807.77258"
         cy="611.00934"
         rx="217.29268"
         ry="399.64807"
         d="M 1025.0653,611.00934 A 217.29268,399.64807 0 0 1 807.77258,1010.6574 217.29268,399.64807 0 0 1 590.4799,611.00934 217.29268,399.64807 0 0 1 807.77258,211.36127 217.29268,399.64807 0 0 1 1025.0653,611.00934 Z" /></mask><filter
       id="mask-powermask-path-effect15973_inverse"
       inkscape:label="filtermask-powermask-path-effect15973"
       style="color-interpolation-filters:sRGB"
       height="100"
       width="100"
       x="-50"
       y="-50"><feColorMatrix
         id="mask-powermask-path-effect15973_primitive1"
         values="1"
         type="saturate"
         result="fbSourceGraphic" /><feColorMatrix
         id="mask-powermask-path-effect15973_primitive2"
         values="-1 0 0 0 1 0 -1 0 0 1 0 0 -1 0 1 0 0 0 1 0 "
         in="fbSourceGraphic" /></filter><clipPath
       clipPathUnits="userSpaceOnUse"
       id="clipath_lpe_path-effect16105"><circle
         style="display:none;fill:#ffffff;fill-opacity:1;fill-rule:evenodd;stroke-width:1.20408"
         id="circle16107"
         cx="512.80408"
         cy="586.422"
         r="327.24667" /><path
         id="lpe_path-effect16105"
         style="fill:#ffffff;fill-opacity:1;fill-rule:evenodd;stroke-width:1.20408"
         class="powerclip"
         d="M 85.76181,166.43896 H 824.38133 V 1015.4812 H 85.76181 Z M 840.05075,586.422 A 327.24667,327.24667 0 0 0 512.80408,259.17532 327.24667,327.24667 0 0 0 185.5574,586.422 327.24667,327.24667 0 0 0 512.80408,913.66867 327.24667,327.24667 0 0 0 840.05075,586.422 Z" /></clipPath><mask
       maskUnits="userSpaceOnUse"
       id="mask-powermask-path-effect16124"><path
         id="mask-powermask-path-effect16124_box"
         style="fill:#ffffff;fill-opacity:1"
         d="M 89.76181,170.43896 H 820.38133 V 1011.4812 H 89.76181 Z" /><ellipse
         style="fill:#ffffff;fill-opacity:1;fill-rule:evenodd;stroke-width:0.820188"
         id="ellipse16122"
         cx="776.51752"
         cy="603.56586"
         rx="171.43892"
         ry="360.52597"
         d="M 947.95644,603.56586 A 171.43892,360.52597 0 0 1 776.51752,964.09183 171.43892,360.52597 0 0 1 605.0786,603.56586 171.43892,360.52597 0 0 1 776.51752,243.03989 171.43892,360.52597 0 0 1 947.95644,603.56586 Z" /></mask><inkscape:path-effect
       effect="powerclip"
       id="path-effect16080"
       is_visible="true"
       lpeversion="1"
       inverse="true"
       flatten="false"
       hide_clip="false"
       message="M 719.14355,954.79412 A 419.52112,419.52112 0 0 1 184.10743,854.79245 419.52112,419.52112 0 0 1 198.13476,310.67186 419.52112,419.52112 0 0 1 737.6128,238.37095 L 510.28293,590.96008 Z" /><inkscape:path-effect
       effect="powerclip"
       id="path-effect16105"
       is_visible="true"
       lpeversion="1"
       inverse="true"
       flatten="false"
       hide_clip="false"
       message="À.Û‹" /><inkscape:path-effect
       effect="powermask"
       id="path-effect16124"
       is_visible="true"
       lpeversion="1"
       uri="#mask-powermask-path-effect16124"
       invert="false"
       hide_mask="false"
       background="true"
       background_color="#ffffffff" /><clipPath
       clipPathUnits="userSpaceOnUse"
       id="clipath_lpe_path-effect16080"><circle
         style="display:none;fill:#ffffff;fill-opacity:1;fill-rule:evenodd;stroke-width:1.20408"
         id="circle16303"
         cx="512.80408"
         cy="586.422"
         r="327.24667"
         d="M 840.05075,586.422 A 327.24667,327.24667 0 0 1 512.80408,913.66867 327.24667,327.24667 0 0 1 185.5574,586.422 327.24667,327.24667 0 0 1 512.80408,259.17532 327.24667,327.24667 0 0 1 840.05075,586.422 Z" /><path
         id="lpe_path-effect16080"
         style="fill:#ffffff;fill-opacity:1;fill-rule:evenodd;stroke-width:1.20408"
         class="powerclip"
         d="M 85.76181,166.43896 H 824.38133 V 1015.4812 H 85.76181 Z M 840.05075,586.422 A 327.24667,327.24667 0 0 0 512.80408,259.17532 327.24667,327.24667 0 0 0 185.5574,586.422 327.24667,327.24667 0 0 0 512.80408,913.66867 327.24667,327.24667 0 0 0 840.05075,586.422 Z" /></clipPath><filter
       id="mask-powermask-path-effect16124_inverse"
       inkscape:label="filtermask-powermask-path-effect16124"
       style="color-interpolation-filters:sRGB"
       height="100"
       width="100"
       x="-50"
       y="-50"><feColorMatrix
         id="mask-powermask-path-effect16124_primitive1"
         values="1"
         type="saturate"
         result="fbSourceGraphic" /><feColorMatrix
         id="mask-powermask-path-effect16124_primitive2"
         values="-1 0 0 0 1 0 -1 0 0 1 0 0 -1 0 1 0 0 0 1 0 "
         in="fbSourceGraphic" /></filter></defs><g
     inkscape:groupmode="layer"
     id="layer6"
     inkscape:label="logo v2"
     style="display:none"><g
       inkscape:label="CO2"
       id="layer1-0"
       style="display:inline"
       transform="matrix(0.11769226,0,0,0.11769226,2.5031808,22.328264)"><g
         inkscape:groupmode="layer"
         id="layer5"
         inkscape:label="Connecting rods"><rect
           style="fill:#000000;fill-opacity:1"
           id="rect5310"
           width="245.05681"
           height="33.279305"
           x="45.398396"
           y="790.10175"
           ry="16.639652"
           transform="rotate(-41)" /><rect
           style="fill:#000000;fill-opacity:1"
           id="rect5310-1"
           width="245.05681"
           height="33.279305"
           x="46.995434"
           y="741.38147"
           ry="16.639652"
           transform="rotate(-41)" /><rect
           style="fill:#000000;fill-opacity:1"
           id="rect5310-1-3"
           width="245.05681"
           height="33.279305"
           x="834.14221"
           y="-1.2443924"
           ry="16.639652"
           transform="rotate(46)" /><rect
           style="fill:#000000;fill-opacity:1"
           id="rect5310-1-3-6"
           width="245.05681"
           height="33.279305"
           x="839.31616"
           y="50.015751"
           ry="16.639652"
           transform="rotate(46)" /></g><circle
         style="fill:#000000;stroke-width:1.42963;image-rendering:auto"
         id="path433"
         cx="-605.74103"
         cy="-488.45511"
         r="97.316818"
         transform="rotate(-170)" /><circle
         style="fill:#ff0000;stroke-width:1.47407;image-rendering:auto"
         id="path433-2"
         cx="-915.28699"
         cy="-687.18402"
         r="100.3422"
         transform="rotate(-170)" /><circle
         style="fill:#ff0000;stroke-width:1.47407;image-rendering:auto"
         id="path433-8"
         cx="-842.25366"
         cy="-218.45552"
         r="100.3422"
         transform="rotate(-170)" /></g><g
       id="layer3"
       inkscape:label="C + blank"
       style="display:inline"
       transform="matrix(0.11769226,0,0,0.11769226,2.5031808,22.328264)"><path
         style="display:none;fill:#4bc0ad;fill-opacity:1;fill-rule:evenodd"
         id="path2695"
         clip-path="url(#clipath_lpe_path-effect14507)"
         inkscape:path-effect="#path-effect14480;#path-effect14496;#path-effect14507"
         sodipodi:type="arc"
         sodipodi:cx="510.28293"
         sodipodi:cy="590.96008"
         sodipodi:rx="419.52112"
         sodipodi:ry="419.52112"
         d="M 929.80405,590.96008 A 419.52112,419.52112 0 0 1 510.28293,1010.4812 419.52112,419.52112 0 0 1 90.76181,590.96008 419.52112,419.52112 0 0 1 510.28293,171.43896 419.52112,419.52112 0 0 1 929.80405,590.96008 Z" /><path
         style="fill:#4bc0ad;fill-opacity:1;fill-rule:evenodd"
         id="path2695-5"
         clip-path="url(#clipath_lpe_path-effect14507-5)"
         inkscape:path-effect="#path-effect14480-9;#path-effect14496-8;#path-effect14507-5;#path-effect15973"
         sodipodi:type="arc"
         sodipodi:cx="510.28293"
         sodipodi:cy="590.96008"
         sodipodi:rx="419.52112"
         sodipodi:ry="419.52112"
         d="M 719.14355,954.79412 A 419.52112,419.52112 0 0 1 184.10743,854.79245 419.52112,419.52112 0 0 1 198.13476,310.67186 419.52112,419.52112 0 0 1 737.6128,238.37095 L 510.28293,590.96008 Z"
         transform="translate(4.3948659,-1.0555414e-5)"
         mask="url(#mask-powermask-path-effect15973)"
         sodipodi:start="1.0496728"
         sodipodi:end="5.2850607"
         sodipodi:arc-type="slice" /></g></g><g
     inkscape:label="Calque 1"
     inkscape:groupmode="layer"
     id="layer1"
     style="display:inline"><g
       id="g5965"
       transform="matrix(0.11769226,0,0,0.11769226,-10.599246,-19.882499)"
       style="display:inline"
       inkscape:export-filename="text6019.png"
       inkscape:export-xdpi="197.43025"
       inkscape:export-ydpi="197.43025"><g
         inkscape:groupmode="layer"
         id="layer3-5"
         inkscape:label="C + blank"
         transform="matrix(1.0276911,0,0,1.0276911,-41.966443,-17.990379)"><path
           style="fill:#4bc0ad;fill-opacity:1;fill-rule:evenodd"
           id="path2695-2"
           clip-path="url(#clipath_lpe_path-effect16080)"
           d="M 819.38133,874.60801 A 419.52112,419.52112 0 0 1 366.28484,984.99374 419.52112,419.52112 0 0 1 91.1274,608.47041 419.52112,419.52112 0 0 1 333.92222,210.3095 419.52112,419.52112 0 0 1 794.64672,282.52013 L 510.28293,590.96008 Z"
           sodipodi:type="arc"
           sodipodi:ry="419.52112"
           sodipodi:rx="419.52112"
           sodipodi:cy="590.96008"
           sodipodi:cx="510.28293"
           inkscape:path-effect="#path-effect16080;#path-effect16105;#path-effect16124"
           mask="url(#mask-powermask-path-effect16124)"
           sodipodi:start="0.74248798"
           sodipodi:end="5.4571954"
           sodipodi:arc-type="slice"
           transform="matrix(0.9734938,0,0,0.9734938,40.111956,14.995211)" /></g><g
         inkscape:groupmode="layer"
         id="layer5-0"
         inkscape:label="Connecting rods"
         transform="matrix(1.0276911,0,0,1.0276911,-41.966443,-17.990379)"><rect
           style="fill:#000000;fill-opacity:1"
           id="rect5310-2"
           width="245.05681"
           height="33.279305"
           x="45.398396"
           y="790.10175"
           ry="16.639652"
           transform="rotate(-41)" /><rect
           style="fill:#000000;fill-opacity:1"
           id="rect5310-1-7"
           width="245.05681"
           height="33.279305"
           x="46.995434"
           y="741.38147"
           ry="16.639652"
           transform="rotate(-41)" /><rect
           style="fill:#000000;fill-opacity:1"
           id="rect5310-1-3-8"
           width="245.05681"
           height="33.279305"
           x="834.14221"
           y="-1.2443924"
           ry="16.639652"
           transform="rotate(46)" /><rect
           style="fill:#000000;fill-opacity:1"
           id="rect5310-1-3-6-7"
           width="245.05681"
           height="33.279305"
           x="839.31616"
           y="50.015751"
           ry="16.639652"
           transform="rotate(46)" /></g><circle
         style="fill:#000000;stroke-width:1.46921;image-rendering:auto"
         id="path433-9"
         cx="-578.06183"
         cy="-491.5513"
         r="100.01162"
         transform="rotate(-170)" /><circle
         style="fill:#ff0000;stroke-width:1.51489;image-rendering:auto"
         id="path433-2-5"
         cx="-896.17944"
         cy="-695.7832"
         r="103.12078"
         transform="rotate(-170)" /><circle
         style="fill:#ff0000;stroke-width:1.51489;image-rendering:auto"
         id="path433-8-7"
         cx="-821.12366"
         cy="-214.07512"
         r="103.12078"
         transform="rotate(-170)" /></g><g
       id="layer4"
       inkscape:label="background"
       style="display:inline"
       transform="matrix(0.11769226,0,0,0.11769226,-11.973532,-20.1483)"
       inkscape:export-filename="Captair_wide_V3.png"
       inkscape:export-xdpi="197.43025"
       inkscape:export-ydpi="197.43025"><text
         xml:space="preserve"
         transform="matrix(5.5773208,0,0,5.5773208,-1798.4829,-1838.6724)"
         id="text6019"
         style="font-weight:bold;font-size:115.2px;font-family:Prompt;-inkscape-font-specification:'Prompt Bold';white-space:pre;shape-inside:url(#rect6021);display:inline;fill:#0a0082;fill-opacity:1;stroke:#000000;stroke-opacity:0"
         inkscape:export-filename="text6019.png"
         inkscape:export-xdpi="197.43025"
         inkscape:export-ydpi="197.43025"><tspan
           x="484.31641"
           y="478.33125"
           id="tspan2812">APTAIR</tspan></text></g></g></svg>
