<?xml version="1.0" encoding="UTF-8" standalone="no"?>
<!-- Created with Inkscape (http://www.inkscape.org/) -->

<svg
   width="1024"
   height="1235"
   id="svg2"
   version="1.0"
   xml:space="preserve"
   xmlns="http://www.w3.org/2000/svg"
   xmlns:svg="http://www.w3.org/2000/svg"
   xmlns:rdf="http://www.w3.org/1999/02/22-rdf-syntax-ns#"
   xmlns:cc="http://creativecommons.org/ns#"
   xmlns:dc="http://purl.org/dc/elements/1.1/"><defs
     id="defs28"><clipPath
       clipPathUnits="userSpaceOnUse"
       id="clipPath16076"><circle
         style="display:none;fill:#ffffff;fill-opacity:1;fill-rule:evenodd;stroke-width:1.20408"
         id="circle16078"
         cx="512.80408"
         cy="586.422"
         r="327.24667"
         d="M 840.05075,586.422 A 327.24667,327.24667 0 0 1 512.80408,913.66867 327.24667,327.24667 0 0 1 185.5574,586.422 327.24667,327.24667 0 0 1 512.80408,259.17532 327.24667,327.24667 0 0 1 840.05075,586.422 Z" /><path
         id="lpe_path-effect16080"
         style="fill:#ffffff;fill-opacity:1;fill-rule:evenodd;stroke-width:1.20408"
         class="powerclip"
         d="M 85.76181,166.43896 H 824.38133 V 1015.4812 H 85.76181 Z M 840.05075,586.422 A 327.24667,327.24667 0 0 0 512.80408,259.17532 327.24667,327.24667 0 0 0 185.5574,586.422 327.24667,327.24667 0 0 0 512.80408,913.66867 327.24667,327.24667 0 0 0 840.05075,586.422 Z" /></clipPath><filter
       id="mask-powermask-path-effect16095_inverse"
       style="color-interpolation-filters:sRGB"
       height="100"
       width="100"
       x="-50"
       y="-50"><feColorMatrix
         id="mask-powermask-path-effect16095_primitive1"
         values="1"
         type="saturate"
         result="fbSourceGraphic" /><feColorMatrix
         id="mask-powermask-path-effect16095_primitive2"
         values="-1 0 0 0 1 0 -1 0 0 1 0 0 -1 0 1 0 0 0 1 0 "
         in="fbSourceGraphic" /></filter><clipPath
       clipPathUnits="userSpaceOnUse"
       id="clipath_lpe_path-effect16105"><circle
         style="display:none;fill:#ffffff;fill-opacity:1;fill-rule:evenodd;stroke-width:1.20408"
         id="circle16107"
         cx="512.80408"
         cy="586.422"
         r="327.24667"
         d="M 840.05075,586.422 A 327.24667,327.24667 0 0 1 512.80408,913.66867 327.24667,327.24667 0 0 1 185.5574,586.422 327.24667,327.24667 0 0 1 512.80408,259.17532 327.24667,327.24667 0 0 1 840.05075,586.422 Z" /><path
         id="lpe_path-effect16105"
         style="fill:#ffffff;fill-opacity:1;fill-rule:evenodd;stroke-width:1.20408"
         class="powerclip"
         d="M 85.76181,166.43896 H 824.38133 V 1015.4812 H 85.76181 Z M 840.05075,586.422 A 327.24667,327.24667 0 0 0 512.80408,259.17532 327.24667,327.24667 0 0 0 185.5574,586.422 327.24667,327.24667 0 0 0 512.80408,913.66867 327.24667,327.24667 0 0 0 840.05075,586.422 Z" /></clipPath><mask
       maskUnits="userSpaceOnUse"
       id="mask-powermask-path-effect16124"><path
         id="mask-powermask-path-effect16124_box"
         style="fill:#ffffff;fill-opacity:1"
         d="M 89.76181,170.43896 H 820.38133 V 1011.4812 H 89.76181 Z" /><ellipse
         style="fill:#ffffff;fill-opacity:1;fill-rule:evenodd;stroke-width:0.820188"
         id="ellipse16122"
         cx="776.51752"
         cy="603.56586"
         rx="171.43892"
         ry="360.52597"
         d="M 947.95644,603.56586 A 171.43892,360.52597 0 0 1 776.51752,964.09183 171.43892,360.52597 0 0 1 605.0786,603.56586 171.43892,360.52597 0 0 1 776.51752,243.03989 171.43892,360.52597 0 0 1 947.95644,603.56586 Z" /></mask><filter
       id="mask-powermask-path-effect16124_inverse"
       style="color-interpolation-filters:sRGB"
       height="100"
       width="100"
       x="-50"
       y="-50"><feColorMatrix
         id="mask-powermask-path-effect16124_primitive1"
         values="1"
         type="saturate"
         result="fbSourceGraphic" /><feColorMatrix
         id="mask-powermask-path-effect16124_primitive2"
         values="-1 0 0 0 1 0 -1 0 0 1 0 0 -1 0 1 0 0 0 1 0 "
         in="fbSourceGraphic" /></filter></defs><metadata
     id="metadata7"><rdf:RDF><cc:Work
         rdf:about=""><dc:format>image/svg+xml</dc:format><dc:type
           rdf:resource="http://purl.org/dc/dcmitype/StillImage" /></cc:Work></rdf:RDF></metadata><g
     style="fill:none"
     id="g283"
     transform="matrix(6.4480221,0,0,6.4480221,63.3398,108.9777)"><rect
       width="140.71037"
       height="140.71037"
       rx="18.761383"
       fill="#ffffff"
       id="rect274"
       x="-3.3177238"
       y="4.4236321"
       style="stroke-width:0.938069" /></g><g
     id="layer3"><path
       style="fill:#4bc0ad;fill-opacity:1;fill-rule:evenodd"
       id="path2695"
       clip-path="url(#clipath_lpe_path-effect16105)"
       d="M 819.38133,874.60801 A 419.52112,419.52112 0 0 1 366.28484,984.99374 419.52112,419.52112 0 0 1 91.1274,608.47041 419.52112,419.52112 0 0 1 333.92222,210.3095 419.52112,419.52112 0 0 1 794.64672,282.52013 L 510.28293,590.96008 Z"
       mask="url(#mask-powermask-path-effect16124)" /></g><g
     id="layer1"><g
       id="layer5"><rect
         style="fill:#000000;fill-opacity:1"
         id="rect5310"
         width="245.05681"
         height="33.279305"
         x="45.398396"
         y="790.10175"
         ry="16.639652"
         transform="rotate(-41)" /><rect
         style="fill:#000000;fill-opacity:1"
         id="rect5310-1"
         width="245.05681"
         height="33.279305"
         x="46.995434"
         y="741.38147"
         ry="16.639652"
         transform="rotate(-41)" /><rect
         style="fill:#000000;fill-opacity:1"
         id="rect5310-1-3"
         width="245.05681"
         height="33.279305"
         x="834.14221"
         y="-1.2443924"
         ry="16.639652"
         transform="rotate(46)" /><rect
         style="fill:#000000;fill-opacity:1"
         id="rect5310-1-3-6"
         width="245.05681"
         height="33.279305"
         x="839.31616"
         y="50.015751"
         ry="16.639652"
         transform="rotate(46)" /></g><circle
       style="fill:#000000;stroke-width:1.42963;image-rendering:auto"
       id="path433"
       cx="-605.74103"
       cy="-488.45511"
       r="97.316818"
       transform="rotate(-170)" /><circle
       style="fill:#ff0000;stroke-width:1.47407;image-rendering:auto"
       id="path433-2"
       cx="-915.28699"
       cy="-687.18402"
       r="100.3422"
       transform="rotate(-170)" /><circle
       style="fill:#ff0000;stroke-width:1.47407;image-rendering:auto"
       id="path433-8"
       cx="-842.25366"
       cy="-218.45552"
       r="100.3422"
       transform="rotate(-170)" /></g></svg>
